<svg xmlns="http://www.w3.org/2000/svg" fill="none" viewBox="0 0 32 21"><path fill="#fff" d="M32 3a3 3 0 0 0-3-3H3a3 3 0 0 0-3 3v10.38a3 3 0 0 0 3 3h6.75c.26 0 1.32.1 2.25 1.03 1.65 1.67 1.91 3.59 4 3.59s2.24-1.93 4-3.59a3.34 3.34 0 0 1 2.2-1.03H29a3 3 0 0 0 3-3z"/><circle cx="16" cy="18" r="1" fill="#000"/><path fill="#000" fill-rule="evenodd" d="M13.58 14c0-.25-.02-.47.01-.67.02-.1.12-.18.2-.24.4-.26.85-.46 1.23-.76a4.86 4.86 0 0 0 2-3.86c0-.46-.17-.58-.56-.4-1.13.52-2.34.22-3-.76-.7-1.06-.6-2.47.25-3.4a2.84 2.84 0 0 1 4.09-.09 3.77 3.77 0 0 1 1.17 2.55 6.87 6.87 0 0 1-4.43 7.29c-.3.12-.6.22-.96.34" clip-rule="evenodd"/></svg>