<svg xmlns="http://www.w3.org/2000/svg" viewBox="0 0 24 24"><path fill="#4285F4" d="M22.56 12.25c0-.78-.07-1.53-.2-2.25H12v4.26h5.92a5.07 5.07 0 0 1-2.21 3.31v2.77h3.57c2.08-1.92 3.28-4.74 3.28-8.09"/><path fill="#34A853" d="M12 23c2.97 0 5.46-.98 7.28-2.66l-3.57-2.77A6.55 6.55 0 0 1 12 18.63a6.57 6.57 0 0 1-6.16-4.53H2.18v2.84A10.99 10.99 0 0 0 12 23"/><path fill="#FBBC05" d="M5.84 14.09a6.6 6.6 0 0 1 0-4.18V7.07H2.18a10.86 10.86 0 0 0 0 9.86l2.85-2.22z"/><path fill="#EA4335" d="M12 5.38a6 6 0 0 1 4.21 1.64l3.15-3.15A10.55 10.55 0 0 0 12 1C7.7 1 3.99 3.47 2.18 7.07l3.66 2.84A6.57 6.57 0 0 1 12 5.38"/><path fill="none" d="M1 1h22v22H1z"/></svg>