<svg xmlns="http://www.w3.org/2000/svg" width="32" height="32" fill="none"><path fill="#000" d="M28.28 10.91c-.15.1-3.54 1.97-3.54 6.15a7.23 7.23 0 0 0 4.35 6.42c-.07.09-.62 2.27-2.25 4.56-1.3 1.97-2.74 3.96-4.92 3.96-2.08 0-2.82-1.31-5.22-1.31-2.57 0-3.3 1.31-5.27 1.31-2.18 0-3.73-2.1-5.1-4.05A19.94 19.94 0 0 1 3 17.53c-.03-2.04.36-4.04 1.35-5.75C5.75 9.41 8.25 7.8 11 7.74c2.1-.07 3.96 1.43 5.23 1.43 1.23 0 3.52-1.43 6.1-1.43 1.13 0 4.1.34 5.96 3.17ZM16.05 7.33c-.38-1.86.65-3.73 1.61-4.92A6.8 6.8 0 0 1 22.5 0c.1 1.86-.57 3.7-1.78 5.02-1.08 1.44-2.94 2.52-4.66 2.31Z"/></svg>