<svg xmlns="http://www.w3.org/2000/svg" width="128" height="128" fill="none"><rect width="128" height="128" fill="#131318" rx="28"/><path fill="#fff" fill-rule="evenodd" d="M49.012 99.5c0-1.654-.13-3.04.061-4.376.081-.57.749-1.18 1.293-1.524 2.652-1.677 5.534-3.017 8.004-4.941 8-6.233 12.741-14.437 13-25.095.074-3.027-1.043-3.783-3.593-2.604-7.363 3.404-15.28 1.408-19.506-4.917-4.608-6.898-3.96-16.082 1.562-22.108 7.052-7.697 18.657-7.927 26.659-.577 4.793 4.404 7.07 10.089 7.639 16.555 1.904 21.665-9 39.521-28.846 47.365-1.964.776-3.978 1.414-6.273 2.222" clip-rule="evenodd"/></svg>
