<svg xmlns="http://www.w3.org/2000/svg" width="128" height="128"><path fill-rule="evenodd" d="M35.806 128c0-2.96-.239-5.442.107-7.83.143-1.026 1.336-2.112 2.313-2.732 4.746-3.008 9.897-5.407 14.308-8.844 14.309-11.159 22.798-25.85 23.251-44.922.143-5.419-1.86-6.78-6.415-4.667-13.175 6.087-27.34 2.518-34.888-8.796-8.25-12.352-7.082-28.798 2.79-39.587C49.887-3.151 70.634-3.568 84.954 9.595c8.573 7.877 12.64 18.058 13.665 29.634 3.398 38.788-16.097 70.75-51.593 84.797-3.518 1.384-7.119 2.53-11.22 3.974" clip-rule="evenodd" style="stroke-width:1.19292"/></svg>
